<?xml version="1.0" encoding="UTF-8" standalone="no"?>
<!-- Created with Inkscape (http://www.inkscape.org/) -->

<svg
   xmlns:dc="http://purl.org/dc/elements/1.1/"
   xmlns:cc="http://creativecommons.org/ns#"
   xmlns:rdf="http://www.w3.org/1999/02/22-rdf-syntax-ns#"
   xmlns:svg="http://www.w3.org/2000/svg"
   xmlns="http://www.w3.org/2000/svg"
   xmlns:sodipodi="http://sodipodi.sourceforge.net/DTD/sodipodi-0.dtd"
   xmlns:inkscape="http://www.inkscape.org/namespaces/inkscape"
   width="2003"
   height="403"
   viewBox="0 0 2003.0001 402.99999"
   id="svg2"
   version="1.1"
   inkscape:version="0.91 r13725"
   sodipodi:docname="Tallinn_skyline_bottom.svg">
  <defs
     id="defs4" />
  <sodipodi:namedview
     id="base"
     pagecolor="#ffffff"
     bordercolor="#666666"
     borderopacity="1.0"
     inkscape:pageopacity="0.0"
     inkscape:pageshadow="2"
     inkscape:zoom="0.7"
     inkscape:cx="894.74481"
     inkscape:cy="296.75699"
     inkscape:document-units="px"
     inkscape:current-layer="layer1"
     showgrid="false"
     inkscape:window-width="3840"
     inkscape:window-height="2130"
     inkscape:window-x="0"
     inkscape:window-y="30"
     inkscape:window-maximized="1"
     fit-margin-top="0"
     fit-margin-left="0"
     fit-margin-right="0"
     fit-margin-bottom="0"
     units="px" />
  <metadata
     id="metadata7">
    <rdf:RDF>
      <cc:Work
         rdf:about="">
        <dc:format>image/svg+xml</dc:format>
        <dc:type
           rdf:resource="http://purl.org/dc/dcmitype/StillImage" />
        <dc:title />
      </cc:Work>
    </rdf:RDF>
  </metadata>
  <g
     inkscape:label="Layer 1"
     inkscape:groupmode="layer"
     id="layer1"
     transform="translate(348.13832,-377.11836)">
    <path
       inkscape:connector-curvature="0"
       id="path4611-2"
       d="m -347.24193,833.86359 c 1.92802,-0.31412 5.15036,-4.00901 5.51761,-3.82878 0,0 1.64552,-2.25945 2.84063,-1.93246 2.13504,0.58419 2.27694,-12.25105 2.39023,-10.38362 l 0.21729,1.89422 3.66956,-5.7728 c 3.57986,0.12173 5.70953,-21.19932 7.30355,-19.66219 2.7147,2.61781 3.63581,-0.64513 4.343,-0.77835 0.37133,-0.0699 1.28437,-1.53635 2.029,-0.85595 0.96377,0.8807 3.95332,-26.80684 5.43444,-26.63827 2.53218,0.28817 8.10846,-1.87339 8.77048,-2.27357 0.58139,-0.35148 0.63102,-2.77424 0.0856,-4.17753 -0.21731,-0.55918 -0.25762,-1.67159 -0.0896,-2.47209 0.40166,-1.91315 0.76448,-0.98202 1.16441,2.98829 0.2596,2.57714 0.41394,2.99798 1.00852,2.74996 0.38609,-0.16107 1.05554,-0.27836 1.48764,-0.26064 0.43209,0.0178 1.16545,-0.33935 1.6297,-0.79349 0.46422,-0.4541 1.14005,-0.82565 1.50181,-0.82565 0.36179,0 0.99737,-0.16734 1.41242,-0.37188 3.91489,-1.9293 4.42012,-6.00925 6.35557,-5.79586 1.86139,0.20523 2.00429,0.15204 2.00429,-0.74588 0,-0.93998 0.0894,-0.96028 3.21204,-0.72925 1.76663,0.13065 4.0516,0.59576 5.07772,1.03347 1.73312,0.73928 2.04284,0.75067 4.35917,0.16035 2.13726,-0.54468 2.97927,-0.55564 5.89344,-0.0766 1.86994,0.30736 3.91997,0.92107 4.55561,1.36384 1.30018,0.90561 2.15436,1.0147 2.82312,0.36049 0.34011,-0.33269 4.82022,-1.00631 8.30252,-1.24841 0.0599,-0.006 0.10861,-0.66582 0.10861,-1.47037 0,-0.80454 0.17238,-1.56702 0.38307,-1.69437 0.21068,-0.12741 3.86197,-0.27991 8.11396,-0.33894 5.83936,-0.081 7.77479,0.0216 7.91028,0.41905 0.0986,0.28952 0.37493,0.5264 0.61395,0.5264 0.23902,0 0.35362,-0.23762 0.25464,-0.52807 -0.17513,-0.51397 0.84904,-1.30827 2.38909,-1.85285 0.93179,-0.32948 0.99541,-1.26597 0.10862,-1.59884 -0.79901,-0.29993 -0.86908,-1.54672 -0.0869,-1.54672 0.31073,0 0.80984,-0.23912 1.10912,-0.53139 0.2993,-0.29226 1.26735,-0.56438 2.1512,-0.60469 0.88386,-0.0403 2.58484,-0.13605 3.77997,-0.21256 l 2.17291,-0.13929 0.21731,-1.70046 c 0.19738,-1.5447 0.3367,-1.70486 1.52103,-1.74846 1.93486,-0.0713 2.32699,0.19479 2.4741,1.67834 0.13052,1.31633 0.18514,1.34779 2.52364,1.4538 l 2.39023,0.10847 1.43913,-2.3402 c 0.79152,-1.28712 1.6965,-2.3402 2.01107,-2.3402 0.82879,0 1.61621,1.07705 1.94437,2.65958 0.23505,1.13354 0.51527,1.40462 1.57425,1.52289 0.70857,0.0791 1.53028,0.33968 1.82601,0.57896 0.29574,0.23927 0.85407,0.31628 1.24077,0.17113 1.07246,-0.40257 0.74261,-9.99377 -0.38565,-11.21313 -0.83213,-0.89932 -0.87919,-0.859 4.0395,-3.46244 0.35852,-0.18978 0.65188,-0.75939 0.65188,-1.26579 0,-1.24125 0.91933,-1.73033 3.26715,-1.73812 1.38758,-0.006 2.44827,-0.32881 3.6167,-1.10549 l 1.65332,-1.09896 1.60681,1.04017 c 0.88376,0.5721 2.72008,1.55535 4.08075,2.18503 6.36493,2.94546 10.26982,5.77456 7.97039,5.77456 -1.09101,0 -1.49396,7.00062 -0.46109,8.01098 0.14255,0.13943 3.47552,0.32953 7.40654,0.42235 6.25628,0.14772 7.14732,0.0861 7.14732,-0.49371 0,-1.11128 0.81785,-1.23898 2.01843,-0.31519 2.18017,1.67754 3.07466,0.86267 3.8814,-3.53586 0.26241,-1.43088 0.36263,-1.54401 0.75327,-0.85024 0.24782,0.44014 0.8079,1.05024 1.24461,1.35576 0.46373,0.32444 0.79399,1.0815 0.79399,1.82006 0,1.50868 0.93992,1.99717 2.38606,1.24009 0.5761,-0.30161 1.51749,-0.41468 2.15315,-0.25861 1.17957,0.2896 1.61526,-0.19619 1.71482,-1.912 0.0591,-1.01912 0.85561,-0.87355 0.93429,0.17078 0.0822,1.09165 1.31227,2.16038 2.13225,1.85256 0.48068,-0.18045 0.61702,-0.57018 0.44035,-1.25875 -0.35766,-1.39395 0.65042,-2.14463 2.13734,-1.59161 0.87589,0.32573 1.13932,0.71523 1.13932,1.6845 0,1.52775 0.80363,2.13002 1.53556,1.15084 0.43155,-0.5773 0.5792,-0.60129 0.76624,-0.12455 0.27241,0.69438 4.59104,1.3641 5.16649,0.80119 0.22743,-0.22249 1.01005,-0.18891 1.8921,0.0812 1.35912,0.41611 1.50425,0.6119 1.50425,2.02931 0,2.43026 0.67184,3.74968 1.90933,3.74968 1.54448,0 2.43651,-0.42534 2.43651,-1.16181 0,-0.55641 0.87172,-0.62007 6.3015,-0.46027 3.46581,0.10199 6.30149,0.0283 6.30149,-0.16405 0,-0.19221 0.76217,-0.23026 1.6937,-0.0846 1.47196,0.23026 1.73224,0.14616 1.98802,-0.64218 0.16189,-0.49894 0.16643,-1.47674 0.0101,-2.17292 l -0.28421,-1.26579 4.27174,-0.0235 c 6.83436,-0.0376 18.875352,-0.35741 21.003272,-0.55768 1.07561,-0.10121 2.49344,-0.20314 3.15075,-0.22652 0.68738,-0.0243 1.1951,-0.28441 1.1951,-0.61193 0,-0.43122 -0.76497,-0.54922 -3.15074,-0.48597 -3.30978,0.0877 -4.23721,-0.0633 -4.23721,-0.6905 0,-0.20878 1.63835,-0.37963 3.64077,-0.37963 2.75649,0 3.77639,-0.15986 4.19918,-0.65818 0.75744,-0.89275 2.33233,-0.61137 2.49396,0.44564 0.38228,2.50015 0.56286,2.81821 1.52393,2.68454 0.77408,-0.10768 0.93675,-0.37023 0.83115,-1.34157 -0.12587,-1.15859 -0.0735,-1.1953 1.29019,-0.90231 0.7818,0.16798 2.47936,0.35142 3.77231,0.4076 2.00234,0.087 2.3832,-0.0189 2.5691,-0.71425 0.17344,-0.64875 0.54128,-0.79 1.79129,-0.68777 1.34235,0.10981 1.59276,0.29549 1.70749,1.26658 0.18389,1.55645 0.76087,1.89603 3.70057,2.17792 2.49578,0.23931 2.53747,0.22524 2.97595,-1.0052 0.5306,-1.48886 0.53127,-1.48897 2.16461,-0.35127 0.70798,0.49311 1.33978,0.8279 1.40403,0.74393 1.74255,-2.2774 2.08838,-3.49 1.95681,-6.86105 -0.1043,-2.67249 0.0377,-3.81226 0.60374,-4.84616 0.4363,-0.79692 0.93062,-3.24004 1.20421,-5.9516 0.25526,-2.52987 0.61239,-5.55627 0.79368,-6.72533 l 0.32961,-2.12557 0.32425,2.12557 c 0.17836,1.16906 0.50772,3.04366 0.73196,4.16577 0.22422,1.12213 0.40767,3.15281 0.40767,4.51266 0,1.81114 0.22762,2.75548 0.85103,3.53073 0.71862,0.89369 0.81656,1.51438 0.62946,3.98965 -0.28304,3.74454 0.0438,5.42474 1.31632,6.76796 0.90742,0.9578 1.14569,1.02003 2.16528,0.56558 0.73843,-0.32911 1.2952,-0.36438 1.5663,-0.0992 0.23135,0.22631 0.52629,2.96677 0.65541,6.08993 0.12907,3.12318 0.31714,5.80881 0.41777,5.96809 0.10063,0.15929 1.6071,0.26729 3.34767,0.24003 l 3.16469,-0.0497 0.29571,-1.68647 c 0.22978,-1.31049 0.13444,-1.80867 -0.42743,-2.23466 -0.59623,-0.45199 -0.61841,-0.61148 -0.12631,-0.90893 1.37646,-0.83215 18.01328,-1.15682 19.30366,-0.37671 0.28399,0.1717 0.51736,1.22844 0.51863,2.34833 l 10e-4,2.03618 1.8177,0.12937 c 1.77052,0.12598 1.82125,0.0928 1.95563,-1.27533 0.135009,-1.37503 0.186119,-1.40737 2.4208091,-1.53321 2.1058301,-0.11861 2.3923301,-0.0168 3.6939801,1.31392 1.2321504,1.25955 1.7055204,1.45129 3.7328903,1.51191 1.99034012,0.0596 2.35430042,-0.0521 2.54955042,-0.78253 0.28928,-1.08209 0.83651998,-1.08678 1.42442998,-0.0127 0.34474,0.63011 0.86397,0.82212 2.07958,0.76902 0.89106,-0.0388 1.96235,0.0819 2.38064,0.26847 0.50852,0.22684 0.76053,0.15919 0.76053,-0.20414 0,-0.29886 0.29873,-0.86632 0.66385,-1.26098 0.5611398,-0.60655 1.2877998,-0.68564 4.6960501,-0.51126 3.094,0.15829 4.3317,0.0548 5.3195,-0.44488 0.70801,-0.35815 1.79968,-0.55537 2.42591,-0.43827 0.62623,0.11705 1.55165,-0.003 2.05648,-0.26762 0.50483,-0.26426 0.91787,-0.30682 0.91787,-0.0945 0,0.53322 4.39727,0.90944 5.28436,0.45211 0.45369,-0.23391 1.25969,-0.15428 2.17292,0.21466 1.07814,0.43555 2.76578,0.52826 6.55811,0.36019 l 5.10639,-0.22628 0,-1.23538 c 0,-1.88981 1.48538,-2.99752 8.77081,-6.5407 3.66131,-1.78066 10.7638,-5.31492 15.78328,-7.85387 5.01943,-2.53897 9.34944,-4.62546 9.6222,-4.63663 0.27277,-0.0112 5.06408,2.15582 10.64737,4.81554 18.093618,8.6193 24.526448,11.82196 25.340168,12.61606 0.22706,0.22159 1.06948,0.40289 1.87203,0.40289 0.80249,0 2.37678,0.50429 3.49842,1.12065 1.93223,1.06185 2.37556,1.12319 8.44939,1.16906 l 6.41027,0.0485 -8e-5,-1.3816 c -6e-5,-1.6095 0.65669,-1.84225 1.03523,-0.3669 0.33425,1.30281 2.04667,1.6368 7.63826,1.48992 2.30387,-0.0605 4.42378,0.032 4.71103,0.20563 0.30939,0.18707 0.52214,1.32059 0.52214,2.78209 l 0,2.46638 2.24827,0.26046 c 2.51437,0.29129 3.33733,0.79786 2.67518,1.64668 -0.23575,0.30219 -0.34463,1.45809 -0.24206,2.5687 0.17846,1.93131 0.60774,2.50862 1.18552,1.59418 0.14771,-0.23381 0.72197,-0.4251 1.27618,-0.4251 0.55419,0 1.25108,-0.28697 1.54865,-0.63769 0.29754,-0.35073 0.85924,-0.63837 1.24825,-0.63925 1.09465,-0.003 3.53218,-1.61061 3.53218,-2.33029 0,-0.35418 0.18162,-0.64393 0.40353,-0.64393 0.82008,0 1.79516,-1.3764 1.53756,-2.17035 -0.14369,-0.44299 -0.0564,-0.80546 0.19426,-0.80546 0.25056,0 0.57367,-0.46015 0.71795,-1.02262 0.14427,-0.56242 0.65147,-1.12213 1.12701,-1.24378 0.47554,-0.12157 0.97074,-0.61797 1.10034,-1.10297 0.27515,-1.02926 0.87754,-1.12183 1.83849,-0.28246 1.12484,0.98253 2.3716,1.00125 2.55399,0.0384 0.25308,-1.33602 1.30322,-1.92478 2.58368,-1.44857 0.83043,0.30883 1.28328,0.2497 1.83629,-0.23981 0.99665,-0.8823 4.92891,-0.87759 5.67928,0.007 0.36963,0.43569 0.94902,0.57234 1.72229,0.40621 0.77325,-0.16614 1.35266,-0.0294 1.72229,0.4062 0.76024,0.89607 1.31983,0.82461 1.31983,-0.16854 0,-0.45383 0.16069,-0.92228 0.35706,-1.04103 0.47988,-0.29009 2.67824,0.85405 3.39896,1.76891 0.53857,0.68367 0.63925,0.66081 1.44392,-0.32787 0.4757,-0.58453 0.86926,-1.27003 0.87461,-1.52333 0.006,-0.2533 0.59089,-1.01851 1.30129,-1.70045 0.71044,-0.68196 1.29711,-1.57471 1.30376,-1.98387 0.007,-0.40917 0.28261,-0.74395 0.6133,-0.74395 0.33063,0 0.69567,-0.35358 0.81125,-0.78575 0.25257,-0.94478 2.64994,-1.51812 3.80957,-0.91105 0.44278,0.23182 1.79837,0.42146 3.01243,0.42146 1.21403,0 2.58383,0.22995 3.04388,0.51099 0.66276,0.40486 1.07258,0.38735 1.97367,-0.0843 0.94647,-0.49549 1.37003,-0.50283 2.52569,-0.0439 0.76363,0.30339 2.346,0.73774 3.51638,0.96516 2.31107,0.44915 2.85024,0.14382 2.86315,-1.6214 0.004,-0.50106 0.2511,-1.0031 0.54991,-1.11565 0.62318,-0.23476 1.51298,-3.23299 1.59798,-5.38456 0.0632,-1.59919 0.61033,-2.45251 1.96947,-3.07148 0.48789,-0.22219 1.57148,-0.76697 2.40805,-1.21064 2.02237,-1.07252 3.76098,-1.07146 4.44675,0.003 0.71454,1.11922 0.89615,1.08488 2.48586,-0.47018 1.18329,-1.15746 1.54939,-1.28661 2.96685,-1.04657 0.8894,0.1506 2.10104,0.28409 2.6925,0.29665 0.59147,0.0127 1.59263,0.3831 2.2248,0.82344 0.63214,0.44032 1.65626,0.9891 2.27578,1.21948 0.74741,0.278 1.25086,0.88909 1.49657,1.81669 0.23198,0.87568 0.68469,1.45409 1.21202,1.54859 1.55315,0.27828 2.23805,1.30909 2.49633,3.75714 0.29173,2.76467 1.16862,3.99101 2.2348,3.12542 0.53481,-0.43414 0.80665,-0.439 1.31835,-0.0237 0.5364,0.43546 1.03171,0.12302 2.94956,-1.86093 2.73536,-2.82957 4.43311,-3.16602 6.44791,-1.27785 1.00746,0.94421 1.42754,1.06567 2.86385,0.8283 1.14952,-0.18997 1.81612,-0.5745 2.10251,-1.21275 0.28478,-0.6347 0.72839,-0.89269 1.38263,-0.80398 0.74498,0.10097 1.03103,-0.13987 1.26205,-1.06279 0.16426,-0.65636 0.51306,-1.34005 0.77502,-1.51934 0.26197,-0.17926 2.13861,-0.21861 4.17029,-0.0875 3.22497,0.20825 3.82822,0.13405 4.75124,-0.58472 l 18.632,-4.5432 c -0.0816,3.57516 0.0463,6.14245 0.33232,6.66298 0.25578,0.46578 1.67361,1.50209 3.15074,2.30292 2.88111,1.56206 2.96852,1.52715 2.71966,-1.08644 -0.14919,-1.56726 0.85853,-4.2011 1.70825,-4.46493 0.57543,-0.17865 0.80147,-0.94856 1.01961,-3.47292 l 19.11962,1.74487 c 0.85008,0.89729 1.29898,1.0487 2.5061,0.84532 1.81955,-0.30655 3.37706,-1.01089 4.39073,-1.98557 0.42557,-0.40917 1.05736,-0.74395 1.40402,-0.74395 0.34668,0 0.79643,-0.29037 0.9994,-0.64524 0.31038,-0.54239 0.60703,-0.56411 1.86187,-0.13618 1.54118,0.52557 4.331,2.87147 4.331,3.64187 0,0.24003 0.31451,0.69173 0.69891,1.00379 0.59097,0.47974 0.78298,0.45495 1.24303,-0.16048 0.29928,-0.40036 0.77184,-0.72791 1.05017,-0.72791 0.27836,0 0.68163,-0.45164 0.89618,-1.00363 0.31307,-0.80557 0.84704,-1.07346 2.70543,-1.35736 1.27341,-0.19453 2.6086,-0.3082 2.96717,-0.25259 0.35851,0.0555 2.10044,0.26134 3.8709,0.45718 2.52443,0.27924 3.37144,0.55374 3.92533,1.27208 0.38856,0.5038 1.28674,1.29022 1.99601,1.74759 1.33804,0.86276 3.67993,1.13895 3.67993,0.43397 0,-0.22177 0.46315,-0.89203 1.0291,-1.48948 0.92477,-0.97606 1.32396,-1.07834 3.93361,-1.00801 1.99041,0.0536 3.01304,0.26824 3.24973,0.68191 0.48651,0.85045 4.34411,1.51035 5.12469,0.87664 0.34859,-0.283 2.84579,-0.57428 5.9103,-0.6894 5.9063,-0.22183 9.08443,0.41599 9.37332,1.8811 0.18971,0.96205 0.88981,1.85091 1.45786,1.85091 0.40076,0 0.1858,-5.26978 -0.36848,-9.03368 -0.13339,-0.90569 -0.0524,-1.59418 0.18739,-1.59418 0.23221,0 0.55809,1.24144 0.72424,2.75876 0.16606,1.51734 0.46389,2.85663 0.66172,2.97624 0.19778,0.1196 0.25743,0.59985 0.13252,1.06726 -0.16072,0.60121 -0.013,0.84981 0.50472,0.84981 0.49739,0 0.65597,0.23827 0.49512,0.74394 -0.41194,1.29511 0.30899,1.62424 3.59574,1.64155 2.85967,0.015 3.2882,0.12653 4.02587,1.04752 l 0.82548,1.03068 0.83644,-0.9712 c 0.64657,-0.75076 1.09965,-0.90655 1.9963,-0.68641 0.77752,0.19088 1.28564,0.0905 1.54125,-0.30414 l 21.32537,-3.75254 23.39696,5.71429 8.03984,0 0.0391,-4.6832 c 0.0233,-2.77742 0.25301,-5.07435 0.56492,-5.64441 0.31591,-0.57751 0.53723,-2.86569 0.55437,-5.73212 0.25165,-7.21253 2.92136,-16.81297 3.45214,-2.99773 0.10874,3.68695 0.45918,7.43815 0.67513,7.22691 0.32571,-12.77206 29.84605,8.3327 44.80096,6.33206 1.01582,-0.13235 2.68756,-0.35239 3.71497,-0.48909 l 1.86801,-0.24856 4.32484,-6.96087 c 2.37863,-3.82848 4.46444,-7.20787 4.63505,-7.50978 0.43627,-0.77197 0.78492,-0.35115 6.00918,7.25329 2.97463,4.32983 4.86,6.67061 5.60108,6.95384 0.6144,0.23485 1.41044,0.56806 1.76898,0.74048 0.35854,0.17239 3.05293,0.32405 5.98756,0.33697 5.21549,0.023 5.35567,0.0485 6.2244,1.12868 1.20152,1.49416 1.89177,1.39074 2.76761,-0.41472 0.47886,-0.98704 0.95329,-1.43886 1.35329,-1.28871 0.42547,0.15973 0.61595,-0.0824 0.61595,-0.78279 0,-0.5577 0.24448,-1.09936 0.54323,-1.20367 0.74088,-0.25864 2.76935,0.78766 3.08445,1.59099 0.39205,0.99931 1.22519,0.77692 1.13577,-0.30312 -0.0436,-0.52607 -0.0575,-1.19564 -0.0311,-1.48789 0.0568,-0.62678 1.3519,-0.72858 1.3519,-0.10633 0,0.23381 0.28722,0.42512 0.63822,0.42512 0.38876,0 0.54045,-0.24924 0.38808,-0.63767 -0.34527,-0.88022 0.99245,-0.83164 1.49937,0.0544 0.50711,0.8864 6.30315,2.02291 7.37749,1.4466 1.34133,-0.71955 5.89598,-1.35592 9.20323,-1.28584 2.6037,0.055 3.35441,0.22288 3.80317,0.84961 0.30751,0.42949 1.14318,0.90638 1.85706,1.05975 1.36076,0.29238 3.04686,2.00312 3.04686,3.09149 0,0.98938 1.62594,-1.22993 1.8044,-2.46293 0.30112,-2.08029 4.5079,-2.76698 5.02818,-0.82073 0.5147,1.92534 2.02611,0.45901 4.53567,-4.40057 0.55959,-1.08353 1.21297,-1.91265 1.452,-1.84251 0.23906,0.07 1.21685,1.66763 2.17294,3.54996 0.95608,1.8823 2.00677,3.73216 2.33475,4.11085 0.66065,0.76251 2.46093,0.92714 2.8803,0.26337 0.14771,-0.23383 0.77703,-0.42513 1.39852,-0.42513 1.19916,0 3.84813,-2.46798 6.15995,-5.73903 1.38365,-1.95771 3.29658,-4.73348 4.0746,-5.91241 0.29444,-0.44609 1.03725,-1.40261 1.65074,-2.12558 0.61339,-0.72298 1.55831,-2.03189 2.09974,-2.90869 0.54131,-0.87681 1.06375,-1.59418 1.1609,-1.59418 0.0971,0 1.36404,1.46174 2.81543,3.24829 4.38068,5.3925 7.48164,8.6549 8.22655,8.6549 1.05577,0 1.74805,-0.87548 1.74805,-2.21058 0,-1.18076 0.26598,-1.34522 1.97081,-1.21895 0.9958,0.0739 2.64438,-1.46856 2.87492,-2.68958 0.0836,-0.44283 0.70369,-1.20805 1.37791,-1.70046 1.64895,-1.20425 8.70042,-1.49324 9.92757,-0.40685 0.70413,0.62333 1.01052,0.62654 3.40848,0.0358 2.4892,-0.61339 4.00659,-0.57786 4.99443,0.11691 0.83561,0.58774 4.12855,0.88479 4.12855,0.37244 0,-0.32706 0.56426,-0.3962 1.73645,-0.21284 1.08895,0.17032 2.05731,0.0757 2.5967,-0.25386 0.67876,-0.41466 0.97246,-0.41565 1.39254,-0.006 0.85683,0.83816 3.86699,0.63974 4.9158,-0.32407 0.75954,-0.69802 1.16519,-0.77584 2.33446,-0.4478 2.12102,0.59503 2.61673,0.23837 2.35202,-1.69236 -0.16725,-1.21945 0.0183,-2.05841 0.70703,-3.2006 0.51351,-0.8514 0.88607,-1.96006 0.82793,-2.46372 -0.17393,-1.50595 0.57815,-6.245 0.95489,-6.01723 0.40648,0.24571 1.11363,5.07828 0.94876,6.48308 -0.0947,0.80615 0.0953,0.95652 1.20792,0.95652 1.136,0 1.32022,0.15604 1.32022,1.11839 0,1.06455 0.0785,1.10336 1.62969,0.80589 0.89633,-0.17187 2.11861,-0.35623 2.71613,-0.40965 0.7419,-0.0662 1.1305,-0.3893 1.22536,-1.01842 0.17417,-1.15558 1.20141,-1.19579 1.81674,-0.0712 0.60124,1.09894 1.73835,1.09894 1.73835,0 0,-1.0453 1.18371,-1.13603 1.38656,-0.10631 0.13052,0.66324 0.64078,0.72842 4.70366,0.60075 l 85.17278,-8.63541 c 0,0.29837 0.49828,0.37014 1.37666,0.19829 1.16276,-0.22747 1.3337,-0.15975 1.10009,0.43576 -0.222,0.56602 0,0.70634 1.12222,0.71155 0.76932,0.003 1.63348,0.15248 1.92033,0.33085 0.92374,0.57443 1.35323,2.3468 0.83714,3.45492 -0.38085,0.81749 -0.35145,1.07073 0.14265,1.23187 0.34214,0.11152 1.07756,0.64836 1.63424,1.19289 0.55662,0.54455 1.39886,1.19256 1.87164,1.44007 0.55969,0.29297 0.85959,0.88979 0.85959,1.71037 0,0.69322 0.19183,1.26039 0.42627,1.26039 0.40011,0 0.66826,-0.76151 0.97312,-2.76324 0.1052,-0.69039 0.51675,-0.87459 2.18982,-0.9798 1.97485,-0.12414 2.06039,-0.0826 2.06039,1.00258 0,1.0017 0.12792,1.10077 1.10972,0.85973 0.6103,-0.14986 1.87831,-0.81709 2.81773,-1.48277 1.69107,-1.19829 1.76231,-1.20904 7.17186,-1.08115 3.42016,0.0809 5.69856,0.31965 6.09129,0.63849 0.48996,0.39776 0.77751,0.3875 1.31238,-0.0468 0.5677,-0.46088 0.75264,-0.45159 1.07984,0.0542 0.21716,0.33569 0.39782,0.82744 0.40147,1.09284 0.0146,1.02886 2.05201,1.73991 5.55376,1.93784 4.06461,0.22973 4.59388,-0.0473 4.37104,-2.28828 -0.13442,-1.35114 -0.0792,-1.40741 1.38105,-1.40741 1.3688,0 1.53528,0.12768 1.66312,1.27534 0.0781,0.70144 0.28591,1.4212 0.46171,1.59944 0.17582,0.17825 3.882,0.38252 8.23615,0.45397 6.14911,0.10087 8.02269,0.006 8.39187,-0.43036 0.26148,-0.30815 0.81866,-0.56025 1.23823,-0.56025 0.8218,0 3.98868,-1.19654 4.34572,-1.64198 0.7144,-0.8912 3.25014,-1.82452 4.36462,-1.60648 1.09636,0.21449 1.39692,0.0272 2.48466,-1.54842 1.33706,-1.93674 1.98364,-2.09919 5.49822,-1.38144 l 1.70024,0.34721 19.63212,-3.0973 c 0.15292,0.242 0.4322,0.34677 0.62068,0.23282 0.18846,-0.11393 0.93101,-0.0421 1.65011,0.15962 0.71913,0.20173 1.5197,0.23843 1.77922,0.0816 l 17.74418,1.07925 c 0.16539,0.94446 0.51599,1.39223 1.18846,1.51799 1.53227,0.28652 1.99338,-0.0548 1.74727,-1.2933 -0.16424,-0.82644 0.31762,-2.12221 1.75529,-4.72006 1.08992,-1.9695 1.98293,-3.69121 1.98438,-3.82603 0,-0.13476 0.33416,-0.81903 0.73919,-1.52047 l 70.86424,7.51131 c 1.1968,1.17061 5.94652,-2.34631 5.5031,-4.07466 -0.2256,-0.87939 -0.063,-1.00941 1.58932,-1.26782 2.10831,-0.32978 2.54591,-0.0434 2.95801,1.93664 l 0.2957,1.42101 3.1214,0.1247 c 3.1032,0.12399 3.1227,0.11776 3.3878,-1.06278 0.1466,-0.65309 0.3268,-1.38792 0.4002,-1.63294 0.1108,-0.36952 1.5155,-0.48734 2.9445,-0.24697 0.1792,0.0301 0.3259,0.50964 0.3259,1.06554 0,1.64441 0.9108,2.01367 4.6307,1.8774 3.3152,-0.12144 3.4097,-0.1545 3.4318,-1.19834 0.034,-1.61731 0.5335,-2.1149 2.1228,-2.1149 1.6126,0 2.2628,0.5562 2.4848,2.12557 0.1394,0.98699 0.3207,1.06278 2.5404,1.06278 l 2.3902,0 -0.1392,-1.40171 -0.1391,-1.40175 2.964,0.12641 2.964,0.12639 0.1334,1.80214 c 0.1289,1.74191 0.235,1.8602 3.1758,3.54029 1.6734,0.956 4.0108,2.22958 5.1942,2.83022 2.0447,1.03771 2.1929,1.05565 2.978,0.36073 0.4542,-0.40223 0.9504,-1.21613 1.1025,-1.80865 0.2239,-0.87327 0.4814,-1.03899 1.3582,-0.87502 0.7557,0.14129 1.2129,-0.0371 1.5164,-0.59185 0.4392,-0.8032 2.5934,-1.08747 4.0622,-0.53611 0.8732,0.32773 0.8997,2.23967 0.035,2.56401 -0.3587,0.13463 -0.6519,0.52068 -0.6519,0.85801 0,0.49802 0.4885,0.55923 2.5996,0.32559 2.0476,-0.2266 2.8319,-0.13873 3.694,0.41382 1.5267,0.97857 1.422,1.95724 -0.2094,1.95724 -1.0026,0 -1.3038,0.19137 -1.3038,0.82852 0,0.59952 0.7672,1.18665 2.776,2.12449 2.9439,1.37434 4.6354,1.40848 6.6512,0.13435 1.5285,-0.96621 2.8899,-0.53178 3.427,1.09349 0.5992,1.81365 0.9181,1.98333 3.7272,1.98333 2.2113,0 2.3297,-0.0563 2.4606,-1.16906 0.1069,-0.90806 0.3671,-1.16906 1.1659,-1.16906 0.6562,0 1.1309,0.31651 1.3119,0.87445 0.2215,0.68224 0.5861,0.84576 1.6591,0.74394 1.137,-0.10778 1.3991,-0.33294 1.5127,-1.29955 0.1677,-1.42526 1.5492,-1.60501 2.2659,-0.29487 0.6162,1.12642 2.139,1.67103 3.2462,1.16105 0.4782,-0.22017 1.519,-1.25672 2.313,-2.30343 1.2296,-1.62082 1.4252,-2.19923 1.3183,-3.89954 l -0.1255,-1.99642 2.3757,0 c 2.1328,0 2.3899,0.0978 2.5146,0.9565 0.1035,0.7132 0.4352,0.96214 1.3038,0.97862 0.6406,0.0127 2.436,0.13193 3.9896,0.26624 1.5536,0.13418 4.047,0.2099 5.5409,0.16811 1.494,-0.0418 2.7295,0.0775 2.7456,0.26516 0.4856,5.64752 1.5595,7.11971 5.5436,7.59886 1.3567,0.16315 2.8526,0.55776 3.324,0.87689 0.4716,0.31913 1.1578,0.58026 1.5252,0.58026 0.692,0 1.8416,1.442 2.0272,2.54295 0.058,0.34648 0.3251,0.70131 0.5926,0.78853 0.2675,0.0871 0.6583,0.60124 0.8686,1.14224 0.2103,0.54101 0.9213,1.23834 1.5797,1.54961 0.6585,0.31126 1.5807,-13.97686 2.049,-13.19006 0.7246,1.21708 0.7766,1.63393 0.348,2.79342 -0.2771,0.74959 -0.5038,2.12407 -0.5038,3.05443 0,0.93032 -0.2269,1.91344 -0.5041,2.18469 -0.3826,0.37414 -0.2611,0.68582 0.5037,1.29151 1.0317,0.81729 0.9001,1.78627 -0.2426,1.78627 -0.3444,0 -0.6262,0.1761 -0.6262,0.39134 0,0.62375 2.4734,0.98412 3.4054,0.49617 0.4671,-0.24446 1.9941,-0.56684 3.3936,-0.71642 1.5313,-0.16369 2.7637,-0.54189 3.0948,-0.94982 0.4765,-0.5871 0.7384,-0.60303 1.9557,-0.11902 0.7729,0.30735 1.8942,0.66004 2.4918,0.78377 0.5976,0.12372 1.3797,0.46173 1.7384,0.75109 0.3585,0.28931 1.8119,0.63671 3.2298,0.77195 1.5941,0.15207 3.0386,0.57913 3.7851,1.11892 1.5858,1.14688 1.7182,1.11975 2.9129,-0.59643 0.8804,-1.26486 1.1298,-1.39575 1.8362,-0.96423 0.6302,0.38502 0.939,0.3801 1.3496,-0.0214 0.6387,-0.62494 2.5315,-0.69645 2.5315,-0.0956 0,0.23381 0.515,0.42511 1.1446,0.42511 1.4826,0 4.505,0.88659 4.505,1.3215 0,0.18521 -0.3423,0.53171 -0.7606,0.77002 -0.4183,0.23832 -0.563,0.43913 -0.3215,0.44623 0.2415,0.007 0.9861,0.50915 1.6548,1.11566 1.55,1.40595 3.3385,1.15246 3.3385,-0.47315 0,-0.58007 0.2445,-1.08255 0.5432,-1.11657 2.5436,-0.28985 5.5435,-0.14115 6.7013,0.33201 0.7693,0.3144 1.6862,0.46368 2.0378,0.33172 0.3683,-0.13829 1.3453,0.37387 2.3058,1.20867 0.9167,0.79674 2.0092,1.57016 2.4275,1.71872 0.4183,0.14855 0.7604,0.62537 0.7604,1.05958 0,0.4342 0.4512,1.204 1.0025,1.71065 0.8742,0.80338 1.4159,0.90527 4.2371,0.79688 3.0107,-0.11563 3.2449,-0.19282 3.3808,-1.11329 0.08,-0.54396 0.9604,-1.81051 1.9557,-2.81458 1.7836,-1.79931 3.2463,-2.33253 4.7017,-1.71384 1.098,0.46679 3.6267,0.10871 3.6267,-0.51364 0,-0.8969 1.1715,-1.35304 3.4767,-1.3538 2.7861,-6.8e-4 4.2331,0.38306 3.9703,1.05344 -0.2374,0.60484 1.4729,1.48367 2.8948,1.48754 0.5266,6.8e-4 1.4821,0.27038 2.1232,0.59762 0.6413,0.32723 1.7857,0.72814 2.5432,0.89088 0.7575,0.16276 1.7705,0.68069 2.2512,1.15086 l 0.874,0.85495 1.8671,-1.28732 c 1.957,-1.34934 3.3694,-1.38648 5.7304,-0.15051 0.5164,0.27037 1.3641,0.4916 1.8838,0.4916 0.7908,0 0.9004,-0.17324 0.6722,-1.06278 -0.2191,-0.85382 -0.1107,-1.06279 0.5515,-1.06279 0.4534,0 1.0677,-0.28696 1.3653,-0.63767 0.2974,-0.3507 1.2143,-0.63766 2.0374,-0.63766 0.823,0 1.9236,-0.23221 2.4457,-0.516 1.2209,-0.66371 5.4397,-0.44424 6.7075,0.34892 0.5377,0.33648 0.9778,0.89433 0.9778,1.23964 0,0.4595 0.5176,0.62788 1.9299,0.62788 1.0615,0 2.051,0.1913 2.1987,0.42512 0.1477,0.23381 0.6272,0.4251 1.0655,0.4251 0.4384,0 0.9097,0.28696 1.0472,0.63768 0.144,0.36685 0.7932,0.63768 1.5286,0.63768 1.2239,0 5.7021,2.95114 5.7021,3.75775 0,0.18538 1.2224,0.86917 2.7162,1.51954 1.494,0.65039 3.2496,1.43942 3.9017,1.75343 0.6765,0.32579 1.8157,0.47089 2.6533,0.33792 1.276,-0.20256 1.5937,-0.0604 2.4295,1.08798 0.7561,1.03858 1.2805,1.32098 2.4529,1.32098 0.8204,0 1.4915,-0.16464 1.4915,-0.3659 0,-0.59178 4.0373,-0.88689 6.0577,-0.44281 2.0403,0.44841 3.171,-0.0348 2.9658,-1.26727 -0.099,-0.59549 0.4251,-0.6785 3.9254,-0.62179 3.4656,0.056 4.3755,0.23157 6.4018,1.23443 2.1038,1.04122 2.2798,1.22776 1.6105,1.70654 -0.9936,0.71068 -0.6954,0.92624 1.6414,1.18678 1.0733,0.11974 2.0043,0.22952 2.0685,0.24406 0.064,0.0147 -0.01,0.51241 -0.1602,1.10633 -0.1874,0.73049 -0.032,1.34469 0.4799,1.89814 0.469,0.50693 0.6771,1.22715 0.547,1.89316 -0.2974,1.52151 0.5002,2.01612 2.3091,1.43195 0.8183,-0.26426 1.7322,-0.5411 2.0309,-0.61522 0.2989,-0.0741 0.5433,-0.62375 0.5433,-1.22141 0,-0.74491 0.3165,-1.20436 1.0065,-1.46098 1.4897,-0.55405 4.3197,-0.29944 5.4759,0.49261 0.7625,0.52251 1.1974,0.58189 1.7572,0.23983 1.0673,-0.65193 4.5412,-0.0439 5.4671,0.95698 0.4231,0.45735 1.1888,0.83153 1.7015,0.83153 0.5127,0 1.1371,0.20046 1.3876,0.44547 0.3174,0.31053 0.7941,0.29446 1.5739,-0.053 1.4492,-0.64589 7.4532,-0.13901 8.1554,0.68847 0.4176,0.49225 0.7037,0.43924 1.7626,-0.32655 0.6953,-0.50281 1.2641,-1.13286 1.2641,-1.4001 0,-0.26724 0.4618,-0.72767 1.0263,-1.02321 1.2662,-0.66282 2.7817,0.084 3.1647,1.55945 0.1993,0.76758 0.456,0.90201 1.3189,0.6902 0.8101,-0.19892 1.4081,0.0405 2.4526,0.98193 2.4837,2.23887 2.4944,2.24237 4.9708,1.614 1.2558,-0.31867 2.4719,-0.69344 2.7025,-0.83285 0.5754,-0.34793 2.5268,0.92803 4.3646,2.85408 1.7064,1.78825 3.0682,2.03343 5.3572,0.96439 1.5858,-0.74067 3.3251,-3.03271 3.3251,-4.38179 0,-1.15712 0.5001,-1.18344 1.521,-0.0799 1.0091,1.09068 2.0435,1.07931 3.0734,-0.0339 0.6048,-0.65376 1.141,-0.82084 2.0586,-0.64133 1.524,0.29815 2.9079,-0.36783 2.9079,-1.39946 0,-0.42316 0.3524,-1.08151 0.7835,-1.46298 0.6538,-0.57885 1.4266,-0.64983 4.6717,-0.42921 2.1386,0.14542 4.999,0.23014 6.3566,0.18829 2.0166,-0.0623 2.6254,0.0888 3.3259,0.82434 0.7992,0.83905 0.8866,0.84983 1.2823,0.15801 0.3992,-0.69759 0.6313,-0.70212 3.8448,-0.075 1.9688,0.38424 3.614,0.5112 3.8772,0.29919 0.6827,-0.54971 8.4994,-0.0461 9.5294,0.61408 1.1398,0.7306 4.5739,0.74729 4.8579,0.0237 0.1461,-0.37293 1.1217,-0.5273 3.1143,-0.49288 1.5957,0.0273 3.3378,-0.10598 3.8714,-0.29688 0.8046,-0.28774 1.0437,-0.15741 1.4017,0.76341 0.4619,1.18822 1.2649,1.42152 2.0957,0.60884 0.3938,-0.38531 0.7581,-0.37301 1.5722,0.0531 0.8699,0.45537 1.5668,0.45599 3.8942,0.003 2.2688,-0.44116 2.9654,-0.44516 3.4891,-0.0201 0.3598,0.2921 1.7892,0.7939 3.1765,1.11512 2.0402,0.47236 2.6053,0.48037 2.9569,0.0419 0.4444,-0.55421 3.5621,-0.70043 4.3459,-0.20382 1.157,0.73315 7.5391,0.54517 8.6166,-0.2538 0.7345,-0.54453 0.7427,-0.66602 0.1067,-1.6146 -0.6499,-0.97018 -0.5491,-1.59556 0.2576,-1.59556 0.1991,0 0.362,0.28694 0.362,0.63766 0,0.82479 0.8222,0.82694 1.1455,0.003 0.1652,-0.42118 0.5862,-0.55183 1.2519,-0.38841 0.8272,0.20307 1.129,-0.0142 1.722,-1.23604 0.3955,-0.81525 0.6572,-1.81625 0.5814,-2.22445 -0.076,-0.40819 0.1067,-0.8258 0.4057,-0.92798 0.2987,-0.10224 0.5398,0.0694 0.5358,0.38101 -0.013,0.99281 1.9416,4.57171 2.5063,4.58888 0.7391,0.0227 0.6841,-0.61515 -0.1092,-1.25882 -0.6835,-0.55492 -0.9171,-2.9758 -0.287,-2.9758 0.2005,0 0.6051,0.5161 0.8991,1.14688 0.7465,1.6029 3.7347,-1.72617 1.0408,-1.77665 l -0.2751,-1.69255 1.0482,0.68076 c 0.5765,0.37441 1.2235,1.27956 1.4382,2.01139 0.4329,1.47676 1.1335,1.78916 1.1335,0.50548 0,-0.45381 0.1956,-0.94336 0.4346,-1.08786 0.7269,-0.43938 0.4868,-1.67669 -0.4346,-2.23948 -0.4781,-0.29204 -0.8691,-0.92324 -0.8691,-1.40267 0,-0.58868 0.1761,-0.76519 0.5428,-0.54362 0.5805,0.35103 0.847,0.3872 3.6814,0.49958 1.8315,0.0725 1.8339,0.0748 1.7384,1.65051 -0.1117,1.84693 1.1268,2.5604 1.5695,0.90397 l 0.2569,-0.96032 1.1031,1.01382 c 1.2321,1.13226 1.4117,2.37463 0.4893,3.38285 -0.782,0.8543 -1.0914,4.34808 -0.4058,4.58208 0.2757,0.0941 0.2968,-1.39028 1.6634,-2.23195 l 1.162,-2.40305 1.0896,0.99971 c 0.5993,0.54984 1.4643,0.93984 1.922,0.86671 0.6422,-0.10258 0.8324,0.12044 0.8324,0.97575 0,1.04823 0.088,1.0933 1.6297,0.82538 0.8964,-0.15585 1.8155,-0.45146 2.0426,-0.65691 0.7762,-0.70238 2.7967,-0.40888 3.2811,0.47669 0.3599,0.65763 0.9293,0.85697 2.5141,0.88008 1.127,0.0165 2.4402,0.18409 2.9181,0.3726 0.4782,0.18847 1.094,0.1676 1.3687,-0.0464 0.2747,-0.21398 1.2525,-0.46157 2.1729,-0.55021 1.7661,-0.17003 2.0075,-0.80571 0.6697,-1.76271 -0.8826,-0.63127 -0.8255,-0.69069 1.6558,-1.72022 1.6178,-0.67129 2.2668,-0.73585 3.7572,-0.37368 0.9909,0.24076 2.1797,0.7724 2.6416,1.18145 1.336,1.18252 2.6131,0.80192 1.3747,-0.40958 -0.7678,-0.75109 -0.029,-1.39741 1.5956,-1.39741 1.1906,0 1.4955,-0.16824 1.4955,-0.82515 0,-0.45383 0.1955,-0.94337 0.4346,-1.08787 0.2389,-0.14451 0.4345,-1.00335 0.4345,-1.90854 0,-1.38009 0.1578,-1.66935 0.9777,-1.79174 1.0013,-0.14941 1.0645,-0.37374 0.5023,-1.78823 -0.2721,-0.68483 -0.1708,-0.7734 0.6461,-0.56444 0.7255,0.1856 1.0646,0.0159 1.3496,-0.67562 0.3006,-0.72944 0.3863,-0.76718 0.4081,-0.17951 0.029,0.77897 0.4041,0.90453 2.2004,0.73632 0.5977,-0.0559 1.5755,-0.14286 2.173,-0.19308 0.5975,-0.0502 1.3309,-0.12131 1.6296,-0.15788 0.2989,-0.0366 0.5433,-0.55081 0.5433,-1.14268 0,-1.72828 1.252,-1.82392 2.6075,-0.1992 1.4148,1.69577 2.7557,1.54728 2.5302,-0.28016 -0.1727,-1.39812 0.7161,-1.78556 1.367,-0.5959 0.2635,0.48183 0.8394,0.87606 1.2798,0.87606 1.0422,0 1.7374,0.85099 1.9471,2.38307 0.2522,1.84339 1.4893,3.91202 2.5333,4.2362 0.7035,0.21832 1.1933,-0.024 2.044,-1.01104 1.4503,-1.68285 3.2276,-1.55649 4.8118,0.34207 0.8073,0.96775 1.4927,1.33873 2.5258,1.36746 0.8097,0.0226 1.5871,0.33062 1.8126,0.71826 0.3368,0.579 0.5324,0.5964 1.3298,0.11846 0.7906,-0.47393 1.0505,-0.45813 1.6836,0.10244 0.6869,0.60816 0.8283,2.52344 1.7128,1.35312 0.7752,-1.02548 4.0757,4.67463 4.954,4.89026 0.7803,0.19161 1.2583,0.0466 1.6727,-0.50779 0.4914,-0.6576 0.8363,-0.71412 2.2592,-0.37037 1.0762,0.25994 1.8336,0.74939 2.1085,1.36261 0.4554,1.01562 1.4305,1.06195 6.1982,0.29447 1.814,-0.29199 1.847,3.60409 1.847,1.93628 0,-1.45639 0.092,-1.62333 0.6476,-1.17236 0.4001,0.32479 0.5518,0.90013 0.3966,1.50501 -0.3653,1.42334 0.9983,2.02775 3.3891,1.5023 2.0074,-0.44121 5.4464,-0.16707 6.3177,0.5036 0.5221,0.40207 0.631,0.25102 1.2323,-1.71123 0.1079,-0.35188 0.5502,-0.4475 1.2621,-0.27275 0.9181,0.22543 1.096,0.12017 1.096,-0.64885 0,-0.86808 0.1654,-0.90946 3.0453,-0.76139 2.2681,0.11663 3.3712,0.39232 4.3226,1.08042 0.7529,0.54448 1.3867,0.75093 1.5435,0.50276 0.4435,-0.70171 4.4294,-0.51874 4.7178,0.21654 0.3243,0.8263 1.1467,0.8263 1.1467,0 0,-0.89562 0.6542,-0.79297 1.3593,0.21323 0.4883,0.69661 0.8327,0.78587 1.9001,0.49217 0.8715,-0.23975 1.2615,-0.59242 1.1762,-1.06345 -0.2078,-1.14564 1.1927,-0.81485 1.6621,0.39261 0.6474,1.66572 1.5076,1.01705 1.5076,-1.13687 l 0,-1.87349 9.2709,0.12344 c 9.0504,0.12058 11.2767,16.97646 11.5056,16.12101 0.4188,-1.56743 1.431,-0.11579 1.4384,2.06307 0,1.08199 0.2006,2.2542 0.4378,2.60493 0.3661,0.54153 0.5536,0.48299 1.2437,-0.38825 0.7939,-1.00213 0.8234,-1.00634 1.2749,-0.18113 0.4044,0.73888 0.9722,0.85671 4.5302,0.9399 3.6237,0.0847 4.1566,11.79488 4.8768,11.01646 0.7738,-0.83635 0.8449,-0.84181 1.6528,-0.12653 0.7457,0.66018 -6.7977,2.7168 1.1492,2.74365 4.9483,0.0168 3.4356,37.85105 3.7208,38.0235 0.3254,0.19668 1.4159,-13.43488 1.4159,-11.48327 0,2.28491 0.1779,3.25573 0.6702,3.65537 0.4798,0.3895 0.8037,0.41373 1.1395,0.0853 0.2579,-0.2524 0.7385,-0.35774 1.068,-0.23408 3.83,6.21576 0.041,19.24435 6.2588,31.21231 l -996.95651,-1.51764 -1007.01766,-0.34263 c 0.21673,-7.41524 2.28969,-9.50413 2.28969,-9.50413 z M 1467.1254,739.17174 c 0,-0.23382 -0.2933,-0.42514 -0.6518,-0.42514 -0.3586,0 -0.652,0.19132 -0.652,0.42514 0,0.2338 0.2934,0.42511 0.652,0.42511 0.3585,0 0.6518,-0.19131 0.6518,-0.42511 z m -249.0175,-3.41422 c 0,-0.50892 -1.2257,-1.05484 -1.5834,-0.70513 -0.3806,0.37226 0.2651,1.14358 0.9571,1.14358 0.3445,0 0.6263,-0.19729 0.6263,-0.43845 z m -1332.00481,12.64917 c 0,-0.45185 -0.2036,-0.47473 -5.10623,-0.57392 -2.26538,-0.0457 -3.15061,0.0855 -3.15073,0.46765 -1.4e-4,0.38781 1.11516,0.53139 4.12838,0.53139 2.46267,0 4.12858,-0.17153 4.12858,-0.42512 z M 1220.2809,731.68867 c 0,-0.85219 -2.389,-1.27583 -3.4595,-0.61351 -0.5458,0.33767 -0.527,0.50886 0.1335,1.22277 0.6553,0.70833 0.9556,0.76082 2.047,0.35787 0.7033,-0.25975 1.279,-0.69497 1.279,-0.96713 z m 23.2502,0.25615 c 0.1478,-0.2338 0.073,-0.4251 -0.166,-0.4251 -0.2389,0 -0.5554,0.1913 -0.7032,0.4251 -0.1476,0.23382 -0.073,0.42512 0.1661,0.42512 0.239,0 0.5555,-0.1913 0.7031,-0.42512 z m -3.2593,-0.4251 c 0,-0.23383 -0.4027,-0.42512 -0.8949,-0.42512 -0.4921,0 -0.7739,0.19129 -0.6262,0.42512 0.1476,0.23381 0.5504,0.4251 0.8948,0.4251 0.3445,0 0.6263,-0.19129 0.6263,-0.4251 z m -33.8976,-3.82603 c 0,-0.23382 -0.4028,-0.42512 -0.8948,-0.42512 -0.4922,0 -0.7741,0.1913 -0.6263,0.42512 0.1477,0.23381 0.5504,0.4251 0.8947,0.4251 0.3444,0 0.6264,-0.19129 0.6264,-0.4251 z m -978.24353,9.01209 c 0.30231,-0.35638 0.44308,-0.75221 0.31281,-0.87967 -0.28885,-0.28251 -2.0599,0.75334 -2.0599,1.20477 0,0.56583 1.17697,0.34683 1.74709,-0.3251 z m -279.881838,-2.11529 c 0,-0.81834 -0.19558,-1.48792 -0.4346,-1.48792 -0.23902,0 -0.43458,0.66958 -0.43458,1.48792 0,0.81834 0.19556,1.48789 0.43458,1.48789 0.23902,0 0.4346,-0.66955 0.4346,-1.48789 z m 2.09181,0.10631 c -0.13935,-1.41432 -0.88961,-1.75921 -1.15075,-0.52902 -0.19531,0.92004 0.22526,1.91064 0.81117,1.91064 0.27495,0 0.41829,-0.58313 0.33958,-1.38162 z M 1564.1105,747.46036 c -0.1478,-0.23383 -0.062,-0.42512 0.1915,-0.42512 0.2531,0 0.4603,0.19129 0.4603,0.42512 0,0.23381 -0.086,0.4251 -0.1917,0.4251 -0.1054,0 -0.3125,-0.19129 -0.4601,-0.4251 z m -34.1331,-9.56915 c -0.4568,-0.45098 -0.7001,-1.09828 -0.5531,-1.47224 0.387,-0.98657 2.0197,0.11859 2.0197,1.36711 0,1.15338 -0.378,1.18047 -1.4666,0.10517 z m 93.7499,25.02546 c 0.02,-0.49524 0.1244,-0.59597 0.2625,-0.25683 0.1257,0.30686 0.1104,0.67353 -0.034,0.81479 -0.1448,0.14129 -0.247,-0.10984 -0.2282,-0.55796 z M 19.120572,747.73354 c 0.0209,-0.49523 0.12386,-0.59596 0.26256,-0.25683 0.1256,0.30687 0.11009,0.67354 -0.0343,0.8148 -0.14442,0.14127 -0.24712,-0.10983 -0.22824,-0.55797 z m -100.41502,-10.37469 c -0.53949,-0.32616 -0.51961,-0.42826 0.13111,-0.67249 0.90673,-0.34038 1.49881,0.0848 0.91427,0.65669 -0.24685,0.24149 -0.66164,0.24776 -1.04531,0.0159 z M 1129.6697,715.36533 c -0.1478,-0.2338 -0.061,-0.42512 0.1916,-0.42512 0.253,0 0.4602,0.19132 0.4602,0.42512 0,0.23381 -0.086,0.42513 -0.1916,0.42513 -0.1053,0 -0.3125,-0.19132 -0.4602,-0.42513 z m -451.47364,-8.52358 c -0.36765,-0.58194 0.59329,-2.69578 1.08922,-2.396 0.54193,0.32765 0.45404,1.17595 -0.21454,2.07031 -0.37543,0.50226 -0.68923,0.61911 -0.87468,0.32569 z"
       style="fill-opacity:1;stroke:none;stroke-opacity:1;fill:#0072ce"
       sodipodi:nodetypes="scssccsccccscsccssssscccscccscccsssssscccscsccssscscscscscscscssssccsccccsscsscccssssscscccccscsscsscccscsssccscsscssssssscccccsccscccccccsccsssscccsscscssscscscccccccscccsssscsscsscccscsccsscsscscsccsccccccscscsscccccsscscsscccccccscsccsssccsscscscsccsccccssscscccsccccssccccccccccscsssccccsssscccssccscscsccscsccsscccscsscccsccscscsccccccssscccscccssccccscssccssscscccscsccscsccsscccccccsscccccccssscsscscsccccccccccccccsscsssccscscccsccccscccccscsccccccscssscccsccscsscsssccsscccccssccssscccccscssscscscssscscsscsccsssccssccccscsscsccscccssscssccscsccsscccccccccccccsccccsscsscccccccsscscscscssscscccccscscsssscccccssccsscsscscccscsscsssccccscscssccssccscccsscccsccsssccccccssccscscccccccsssssssssscsssccccccssssssscsssscssccscssssscssccsscccscccccccccccccccccccssccsccs" />
  </g>
</svg>
